<svg width="39" height="26" viewBox="0 0 39 26" fill="none" xmlns="http://www.w3.org/2000/svg">
<path d="M1.85093 0.219238H36.8509C37.0743 0.223529 37.2946 0.271843 37.4992 0.361328C37.7039 0.450813 37.889 0.579684 38.0438 0.740723C38.1986 0.901762 38.3201 1.09176 38.4015 1.2998C38.4828 1.50785 38.5224 1.72978 38.5179 1.95312V23.6274C38.5224 23.8508 38.4828 24.0727 38.4015 24.2808C38.3201 24.4888 38.1986 24.6788 38.0438 24.8398C37.889 25.0009 37.7039 25.1298 37.4992 25.2192C37.2946 25.3087 37.0743 25.357 36.8509 25.3613H1.85093C1.62759 25.357 1.4073 25.3087 1.20262 25.2192C0.997937 25.1298 0.812878 25.0009 0.658062 24.8398C0.503245 24.6788 0.381628 24.4888 0.300274 24.2808C0.21892 24.0727 0.179432 23.8508 0.183941 23.6274V1.95312C0.179432 1.72978 0.21892 1.50785 0.300274 1.2998C0.381628 1.09176 0.503245 0.901762 0.658062 0.740723C0.812878 0.579684 0.997937 0.450813 1.20262 0.361328C1.4073 0.271843 1.62759 0.223529 1.85093 0.219238Z" fill="url(#paint0_linear_4376_2)"/>
<path d="M30.156 17.4453L29.9041 16.1504H27.17L26.7211 17.4453H24.479L27.686 9.38037C27.7606 9.18038 27.8973 9.00935 28.0759 8.89258C28.2546 8.7758 28.466 8.71948 28.6791 8.73145H30.4081L32.13 17.4463L30.156 17.4453ZM28.92 11.1011L27.79 14.3623H29.556L28.92 11.1011ZM21.6331 11.2153C21.6331 12.1673 24.6331 12.3711 24.6331 14.5601C24.6331 16.6681 22.418 17.4434 20.951 17.4434C20.1173 17.4571 19.2899 17.2949 18.5231 16.9673L18.843 15.0771C19.723 15.7971 22.3921 16.0024 22.3921 14.8594C22.3921 13.7164 19.4171 13.6892 19.4171 11.5132C19.4171 9.20118 21.9511 8.7251 23.0171 8.7251C23.6774 8.74202 24.3305 8.86616 24.951 9.09229L24.644 10.9014C23.726 10.3894 21.6311 10.2672 21.6311 11.2192L21.6331 11.2153ZM15.0491 17.4453L16.3931 8.72998H18.5441L17.2001 17.4453H15.0491ZM9.89209 17.4453L8.026 9.8833C8.35565 10.0892 8.67016 10.3185 8.96704 10.5693C9.86406 11.3369 10.5466 12.3238 10.948 13.4341L11.191 14.7251L13.2421 8.73145H15.557L12.135 17.4463L9.89209 17.4453ZM6.09802 8.96924L5.99805 8.93945L6.09802 8.96924ZM5.87805 8.9043L5.83008 8.89111L5.87805 8.9043ZM6.4071 9.07422L6.27905 9.0293L6.4071 9.07422ZM7.89807 9.79932C7.8314 9.75798 7.76466 9.71818 7.698 9.68018C7.762 9.72418 7.828 9.7622 7.896 9.8042L7.89807 9.79932ZM7.38403 9.50928C7.32603 9.47928 7.26611 9.44743 7.20911 9.41943C7.26411 9.45243 7.32308 9.48416 7.38208 9.51416L7.38403 9.50928ZM6.849 9.25244L6.73108 9.20117L6.849 9.25244Z" fill="#494CA3"/>
<path d="M10.9451 13.4382L10.2211 9.52025C10.183 9.28411 10.0563 9.07141 9.8667 8.92553C9.67714 8.77964 9.43907 8.71191 9.20105 8.73559H5.81104L5.771 8.88256C6.94805 9.19995 8.03888 9.77741 8.96301 10.5725C9.86054 11.3402 10.5435 12.3275 10.9451 13.4382Z" fill="#FFC000"/>
<defs>
<linearGradient id="paint0_linear_4376_2" x1="19.3509" y1="25.3613" x2="19.3509" y2="0.219238" gradientUnits="userSpaceOnUse">
<stop stop-color="#E59703"/>
<stop offset="0.231" stop-color="#E59703"/>
<stop offset="0.234" stop-color="white"/>
<stop offset="0.761" stop-color="white"/>
<stop offset="0.766" stop-color="#5457BB"/>
<stop offset="1" stop-color="#5457BB"/>
</linearGradient>
</defs>
</svg>
